<?xml version="1.0" encoding="UTF-8"?>
<svg version="1.1" xmlns="http://www.w3.org/2000/svg" width="767" height="192">
<path d="M0 0 C2.34256513 0.00971007 4.68513039 0.01939049 7.02769566 0.0290677 C47.0469761 0.19458921 87.06615623 0.37732456 127.08530521 0.57217997 C127.08530521 34.56217997 127.08530521 68.55217997 127.08530521 103.57217997 C-22.07469479 103.57217997 -171.23469479 103.57217997 -324.91469479 103.57217997 C-324.91469479 69.58217997 -324.91469479 35.59217997 -324.91469479 0.57217997 C-289.15138806 0.26759206 -289.15138806 0.26759206 -274.69887447 0.16568583 C-273.36588133 0.15627933 -273.36588133 0.15627933 -272.00595903 0.1466828 C-265.30887971 0.09969056 -258.61179018 0.05431865 -251.91469479 0.00967997 C-250.9620883 0.00329713 -250.00948181 -0.00308571 -249.02800846 -0.00966197 C-166.01660764 -0.56313074 -83.01150035 -0.34410547 0 0 Z " fill="#148E5A" transform="translate(593.9146947860718,38.42782002687454)"/>
<path d="M0 0 C1.69382813 -0.11891602 1.69382813 -0.11891602 3.421875 -0.24023438 C11.60765822 -0.44631674 11.60765822 -0.44631674 15.03466797 2.61962891 C16.88523018 5.22342737 18.39304068 7.85899754 19.875 10.6875 C20.86534682 12.31161104 21.86255248 13.93156328 22.8671875 15.546875 C23.83131717 17.17519747 24.79220735 18.80544199 25.75 20.4375 C30.6167784 28.64537263 35.6624267 36.69488761 40.875 44.6875 C41.205 34.4575 41.535 24.2275 41.875 13.6875 C38.905 13.3575 35.935 13.0275 32.875 12.6875 C32.875 8.7275 32.875 4.7675 32.875 0.6875 C49.21 1.1825 49.21 1.1825 65.875 1.6875 C65.875 4.9875 65.875 8.2875 65.875 11.6875 C62.96899739 12.94414978 61.07895416 13.6875 57.875 13.6875 C57.875 33.8175 57.875 53.9475 57.875 74.6875 C40.875 74.6875 40.875 74.6875 36.4375 70.6875 C35.19304857 68.72243082 34.01125466 66.71705207 32.875 64.6875 C32.10264692 63.44965579 31.32223847 62.21681255 30.53515625 60.98828125 C28.82198711 58.30485991 27.14215066 55.60468859 25.484375 52.88671875 C22.45057003 47.94928196 19.2080195 43.15663314 15.92236328 38.3840332 C12.875 33.90019618 12.875 33.90019618 12.875 31.6875 C12.215 31.6875 11.555 31.6875 10.875 31.6875 C11.205 41.5875 11.535 51.4875 11.875 61.6875 C14.845 62.3475 17.815 63.0075 20.875 63.6875 C20.875 67.3175 20.875 70.9475 20.875 74.6875 C9.655 74.6875 -1.565 74.6875 -13.125 74.6875 C-13.125 71.0575 -13.125 67.4275 -13.125 63.6875 C-10.815 63.0275 -8.505 62.3675 -6.125 61.6875 C-5.795 45.8475 -5.465 30.0075 -5.125 13.6875 C-7.765 13.3575 -10.405 13.0275 -13.125 12.6875 C-13.15187279 10.87507948 -13.17133715 9.06254767 -13.1875 7.25 C-13.19910156 6.24066406 -13.21070313 5.23132812 -13.22265625 4.19140625 C-12.98918481 -1.79480154 -4.62091237 0.14731096 0 0 Z " fill="#168C59" transform="translate(189.125,52.3125)"/>
<path d="M0 0 C1.13787964 -0.00315216 2.27575928 -0.00630432 3.44812012 -0.009552 C4.6866272 -0.00752777 5.92513428 -0.00550354 7.20117188 -0.00341797 C8.46255981 -0.00437469 9.72394775 -0.00533142 11.02355957 -0.00631714 C13.69689325 -0.00699922 16.37013624 -0.00564076 19.04345703 -0.00097656 C22.47698878 0.00472073 25.91044237 0.00144152 29.34397125 -0.00454903 C32.6088743 -0.00902309 35.87376781 -0.0058943 39.13867188 -0.00341797 C40.37717896 -0.0054422 41.61568604 -0.00746643 42.89172363 -0.009552 C44.02960327 -0.00639984 45.16748291 -0.00324768 46.33984375 0 C47.34720581 0.00079559 48.35456787 0.00159119 49.39245605 0.00241089 C51.66992188 0.12939453 51.66992188 0.12939453 52.66992188 1.12939453 C52.7567779 2.69112198 52.77694407 4.25668797 52.76757812 5.82080078 C52.76435547 6.76503906 52.76113281 7.70927734 52.7578125 8.68212891 C52.74524414 10.17196289 52.74524414 10.17196289 52.73242188 11.69189453 C52.72791016 12.68898438 52.72339844 13.68607422 52.71875 14.71337891 C52.7069221 17.1854094 52.68898603 19.65740925 52.66992188 22.12939453 C48.04992187 22.12939453 43.42992187 22.12939453 38.66992188 22.12939453 C38.17492187 19.15939453 38.17492187 19.15939453 37.66992188 16.12939453 C31.72992188 15.79939453 25.78992188 15.46939453 19.66992188 15.12939453 C19.66992188 19.74939453 19.66992188 24.36939453 19.66992188 29.12939453 C27.25992188 29.12939453 34.84992188 29.12939453 42.66992188 29.12939453 C42.66992188 33.74939453 42.66992188 38.36939453 42.66992188 43.12939453 C35.07992187 43.12939453 27.48992187 43.12939453 19.66992188 43.12939453 C19.66992188 48.73939453 19.66992188 54.34939453 19.66992188 60.12939453 C25.93992188 59.79939453 32.20992187 59.46939453 38.66992188 59.12939453 C38.99992187 56.81939453 39.32992187 54.50939453 39.66992188 52.12939453 C44.28992188 52.12939453 48.90992188 52.12939453 53.66992188 52.12939453 C53.66992188 59.38939453 53.66992188 66.64939453 53.66992188 74.12939453 C33.86992187 74.12939453 14.06992188 74.12939453 -6.33007812 74.12939453 C-6.33007812 70.49939453 -6.33007812 66.86939453 -6.33007812 63.12939453 C-2.86507812 62.63439453 -2.86507812 62.63439453 0.66992188 62.12939453 C0.72063003 55.79398008 0.75565884 49.45861796 0.77978516 43.12304688 C0.78984298 40.96775354 0.80349087 38.81247385 0.82080078 36.65722656 C0.8450585 33.55937329 0.8564072 30.46170044 0.86523438 27.36376953 C0.87555695 26.4000946 0.88587952 25.43641968 0.89651489 24.44354248 C0.89674149 23.09259491 0.89674149 23.09259491 0.89697266 21.71435547 C0.90141388 20.92381775 0.9058551 20.13328003 0.91043091 19.31878662 C0.6358451 16.81918819 0.04340257 15.23202766 -1.33007812 13.12939453 C-3.88527734 12.31768225 -3.88527734 12.31768225 -6.33007812 12.12939453 C-6.35695092 10.31697401 -6.37641528 8.5044422 -6.39257812 6.69189453 C-6.40417969 5.68255859 -6.41578125 4.67322266 -6.42773438 3.63330078 C-6.25014958 -0.9199733 -4.01260816 0.00316907 0 0 Z " fill="#168C59" transform="translate(117.330078125,52.87060546875)"/>
<path d="M0 0 C6.93 0 13.86 0 21 0 C25.99048204 9.52015337 30.05055763 19.40191006 34.1875 29.3125 C34.9183165 31.05546574 35.64943403 32.79830529 36.38085938 34.54101562 C41.99490533 47.93109556 41.99490533 47.93109556 44 53 C45.8106141 50.28407885 46.96959374 47.8797253 48.20703125 44.87890625 C48.62919922 43.85990234 49.05136719 42.84089844 49.48632812 41.79101562 C49.92396484 40.72560547 50.36160156 39.66019531 50.8125 38.5625 C51.67317708 36.48046875 52.53385417 34.3984375 53.39453125 32.31640625 C53.8237085 31.27532715 54.25288574 30.23424805 54.69506836 29.16162109 C58.72103244 19.40741439 62.83154719 9.69407629 67 0 C74.26 0 81.52 0 89 0 C89 2.31 89 4.62 89 7 C86.36 7 83.72 7 81 7 C81 26.14 81 45.28 81 65 C83.97 65.33 86.94 65.66 90 66 C90 68.31 90 70.62 90 73 C81.09 73 72.18 73 63 73 C63 70.69 63 68.38 63 66 C67.455 65.505 67.455 65.505 72 65 C71.67 48.83 71.34 32.66 71 16 C67.535 24.415 67.535 24.415 64 33 C61.390625 39.26953125 61.390625 39.26953125 60.19726562 42.12744141 C58.91189827 45.21137948 57.63508432 48.29877376 56.359375 51.38671875 C55.48958333 53.48697917 54.61979167 55.58723958 53.75 57.6875 C53.08097656 59.31075195 53.08097656 59.31075195 52.3984375 60.96679688 C51.76035156 62.5049707 51.76035156 62.5049707 51.109375 64.07421875 C50.72749023 64.99807373 50.34560547 65.92192871 49.95214844 66.8737793 C49 69 49 69 48 70 C45.69 70 43.38 70 41 70 C33.41 52.51 25.82 35.02 18 17 C17.67 32.84 17.34 48.68 17 65 C19.97 65.33 22.94 65.66 26 66 C26 68.31 26 70.62 26 73 C17.42 73 8.84 73 0 73 C0 70.69 0 68.38 0 66 C2.64 65.67 5.28 65.34 8 65 C8 45.86 8 26.72 8 7 C5.36 7 2.72 7 0 7 C0 4.69 0 2.38 0 0 Z " fill="#CCFCBC" transform="translate(554,54)"/>
<path d="M0 0 C1.46634384 -0.00472824 1.46634384 -0.00472824 2.96231079 -0.009552 C4.5421022 -0.00651566 4.5421022 -0.00651566 6.15380859 -0.00341797 C7.77529312 -0.00485306 7.77529312 -0.00485306 9.42953491 -0.00631714 C11.71425434 -0.00699777 13.9989757 -0.00515161 16.28369141 -0.00097656 C19.79512839 0.00438367 23.30643805 -0.00093085 26.81787109 -0.00732422 C29.03401721 -0.00666362 31.25016325 -0.00538284 33.46630859 -0.00341797 C34.52355133 -0.0054422 35.58079407 -0.00746643 36.67007446 -0.009552 C38.12696182 -0.00482376 38.12696182 -0.00482376 39.61328125 0 C40.47249176 0.00079559 41.33170227 0.00159119 42.21694946 0.00241089 C44.17724609 0.12939453 44.17724609 0.12939453 45.17724609 1.12939453 C46.26491917 5.48885837 46.31826922 9.78374176 44.31884766 13.89404297 C41.78929781 18.07261734 38.82783804 21.94895057 35.88476562 25.84179688 C32.8187768 29.94936268 29.91722979 34.17261784 26.98974609 38.37939453 C26.39645508 39.22526123 25.80316406 40.07112793 25.19189453 40.94262695 C20.75121346 47.27399912 16.42792008 53.66837007 12.17724609 60.12939453 C18.77724609 60.12939453 25.37724609 60.12939453 32.17724609 60.12939453 C32.50724609 57.15939453 32.83724609 54.18939453 33.17724609 51.12939453 C37.79724609 51.12939453 42.41724609 51.12939453 47.17724609 51.12939453 C47.26977185 58.99408382 46.89708807 66.21113281 46.17724609 74.12939453 C27.03724609 74.12939453 7.89724609 74.12939453 -11.82275391 74.12939453 C-11.82275391 60.38832171 -11.82275391 60.38832171 -6.69775391 54.12939453 C-5.59598969 52.68131871 -4.49579687 51.23204629 -3.39697266 49.78173828 C-2.52371338 48.65614502 -2.52371338 48.65614502 -1.6328125 47.5078125 C1.54470236 43.33255626 4.50283674 39.00443195 7.48974609 34.69189453 C8.61002729 33.08846193 9.73110054 31.48558238 10.85302734 29.88330078 C11.39008301 29.11518066 11.92713867 28.34706055 12.48046875 27.55566406 C15.37790837 23.41253386 18.27771293 19.27105977 21.17724609 15.12939453 C15.56724609 15.12939453 9.95724609 15.12939453 4.17724609 15.12939453 C4.17724609 17.76939453 4.17724609 20.40939453 4.17724609 23.12939453 C3.17724609 24.12939453 3.17724609 24.12939453 0.01708984 24.22705078 C-1.27068359 24.21544922 -2.55845703 24.20384766 -3.88525391 24.19189453 C-5.17560547 24.18287109 -6.46595703 24.17384766 -7.79541016 24.16455078 C-8.79443359 24.15294922 -9.79345703 24.14134766 -10.82275391 24.12939453 C-10.71288422 20.85786835 -10.5822542 17.58749339 -10.44775391 14.31689453 C-10.40134766 12.92374023 -10.40134766 12.92374023 -10.35400391 11.50244141 C-10.31533203 10.60976563 -10.27666016 9.71708984 -10.23681641 8.79736328 C-10.20539551 7.97518311 -10.17397461 7.15300293 -10.14160156 6.3059082 C-9.82275391 4.12939453 -9.82275391 4.12939453 -7.82275391 1.12939453 C-4.90439351 0.15660773 -3.03707979 0.00280701 0 0 Z " fill="#148D59" transform="translate(61.82275390625,52.87060546875)"/>
<path d="M0 0 C5.53176738 -0.0994991 11.06300426 -0.17176423 16.59545898 -0.21972656 C18.47413213 -0.2397382 20.3527438 -0.26695637 22.23120117 -0.30175781 C24.94465373 -0.3507397 27.65727696 -0.37307329 30.37109375 -0.390625 C31.61384315 -0.42159271 31.61384315 -0.42159271 32.88169861 -0.45318604 C40.33293484 -0.4559995 46.24349806 1.6540409 51.9375 6.5 C56.4479626 11.96722739 56.48800853 16.51408663 56.37890625 23.50390625 C55.85432567 28.34410853 54.46174775 31.57421846 51 35 C46.21875 38 46.21875 38 43 38 C44.59294791 41.8376082 46.21075102 45.66362887 47.85229492 49.48071289 C48.40708026 50.78050957 48.95499797 52.08325998 49.49584961 53.38891602 C50.27489109 55.26618462 51.07807757 57.13141817 51.88671875 58.99609375 C52.36326904 60.12200928 52.83981934 61.2479248 53.33081055 62.40795898 C54.76695531 65.23826127 54.76695531 65.23826127 57.69458008 65.87524414 C58.83576294 65.93699829 58.83576294 65.93699829 60 66 C60 68.31 60 70.62 60 73 C55.71 73 51.42 73 47 73 C46.41714233 71.65252686 46.41714233 71.65252686 45.82250977 70.27783203 C44.38248556 66.94913542 42.94172162 63.62075943 41.50073242 60.29248047 C40.87683205 58.85116184 40.25313309 57.40975601 39.62963867 55.96826172 C38.7340894 53.8978829 37.83781939 51.82781741 36.94140625 49.7578125 C36.6622084 49.11192169 36.38301056 48.46603088 36.09535217 47.80056763 C34.60970367 44.37166937 34.60970367 44.37166937 33 41 C30.44242141 40.68658574 28.00356179 40.48771761 25.4375 40.375 C22.983125 40.25125 20.52875 40.1275 18 40 C18 48.25 18 56.5 18 65 C20.64 65.33 23.28 65.66 26 66 C26 68.31 26 70.62 26 73 C17.09 73 8.18 73 -1 73 C-1 70.69 -1 68.38 -1 66 C3.455 65.505 3.455 65.505 8 65 C8 45.86 8 26.72 8 7 C5.36 7 2.72 7 0 7 C0 4.69 0 2.38 0 0 Z " fill="#C7F9BA" transform="translate(283,54)"/>
<path d="M0 0 C17.82 0 35.64 0 54 0 C54 5.61 54 11.22 54 17 C51.36 17 48.72 17 46 17 C45.505 12.545 45.505 12.545 45 8 C36.09 8 27.18 8 18 8 C18 15.59 18 23.18 18 31 C26.91 31 35.82 31 45 31 C45 33.64 45 36.28 45 39 C36.09 39 27.18 39 18 39 C18 47.58 18 56.16 18 65 C27.57 65 37.14 65 47 65 C47 62.03 47 59.06 47 56 C47.33 55.67 47.66 55.34 48 55 C50.64 55 53.28 55 56 55 C56 60.94 56 66.88 56 73 C37.52 73 19.04 73 0 73 C0 70.69 0 68.38 0 66 C2.64 65.67 5.28 65.34 8 65 C8 46.19 8 27.38 8 8 C5.36 7.67 2.72 7.34 0 7 C0 4.69 0 2.38 0 0 Z " fill="#C9FBBB" transform="translate(652,54)"/>
<path d="M0 0 C17.82 0 35.64 0 54 0 C54 5.61 54 11.22 54 17 C51.03 17 48.06 17 45 17 C45 14.03 45 11.06 45 8 C36.09 8 27.18 8 18 8 C18 15.59 18 23.18 18 31 C26.91 31 35.82 31 45 31 C45 33.64 45 36.28 45 39 C36.09 39 27.18 39 18 39 C18 47.58 18 56.16 18 65 C27.24 65 36.48 65 46 65 C46.495 60.05 46.495 60.05 47 55 C49.64 55 52.28 55 55 55 C55 60.94 55 66.88 55 73 C36.85 73 18.7 73 0 73 C0 70.69 0 68.38 0 66 C2.64 65.67 5.28 65.34 8 65 C8 45.86 8 26.72 8 7 C5.36 7 2.72 7 0 7 C0 4.69 0 2.38 0 0 Z " fill="#C9FABB" transform="translate(352,54)"/>
<path d="M0 0 C8.58 0 17.16 0 26 0 C26 1.98 26 3.96 26 6 C25 7 25 7 21.4375 7.0625 C20.303125 7.041875 19.16875 7.02125 18 7 C18.06710418 13.72643084 18.15695194 20.45228521 18.26245117 27.17822266 C18.29566006 29.46526226 18.32370451 31.75238303 18.34643555 34.03955078 C18.3800551 37.33140578 18.43237624 40.62251972 18.48828125 43.9140625 C18.49467117 44.93303619 18.5010611 45.95200989 18.50764465 47.00186157 C18.61882507 52.39706718 18.94201333 56.35246581 22 61 C25.9767759 64.29781416 30.8606927 65.6795659 35.98046875 65.38671875 C40.89436159 64.44576055 44.81807311 62.48694028 47.9375 58.5625 C50.3167249 52.82436937 50.13215065 47.21912092 50.09765625 41.10546875 C50.0962413 40.15811356 50.09482635 39.21075836 50.09336853 38.23469543 C50.08778611 35.21893105 50.07523682 32.20324182 50.0625 29.1875 C50.05748273 27.13867295 50.05292022 25.08984473 50.04882812 23.04101562 C50.03782243 18.02731494 50.02056988 13.0136702 50 8 C47.69 7.67 45.38 7.34 43 7 C43 4.69 43 2.38 43 0 C51.58 0 60.16 0 69 0 C69 1.98 69 3.96 69 6 C63.25 8 63.25 8 61 8 C61.01571045 9.28052246 61.0314209 10.56104492 61.04760742 11.88037109 C61.10225808 16.67001965 61.13647707 21.45964111 61.16479492 26.24951172 C61.17980192 28.31531421 61.200214 30.38108528 61.22631836 32.44677734 C61.26305961 35.43074338 61.27980764 38.41428507 61.29296875 41.3984375 C61.30845261 42.30927094 61.32393646 43.22010437 61.33988953 44.15853882 C61.34207889 52.66269865 59.97148283 61.21996423 53.828125 67.52734375 C45.49666133 74.23880059 35.15376372 73.96702512 25 73 C18.37794901 71.42332119 13.67536659 66.58258385 10 61 C7.51340333 55.36236281 7.74349606 49.95446397 7.8046875 43.9140625 C7.8075174 42.85714203 7.81034729 41.80022156 7.81326294 40.71127319 C7.8244215 37.34906499 7.84951841 33.98712714 7.875 30.625 C7.88503538 28.33984761 7.89416025 26.05469102 7.90234375 23.76953125 C7.92434668 18.17959589 7.95778127 12.58981727 8 7 C7.05125 7.020625 6.1025 7.04125 5.125 7.0625 C2 7 2 7 0 6 C0 4.02 0 2.04 0 0 Z " fill="#C9FABA" transform="translate(477,54)"/>
<path d="M0 0 C0.99 0.66 1.98 1.32 3 2 C3.22137393 4.62697064 3.28162025 7.00893964 3.1875 9.625 C3.16719727 10.68460938 3.16719727 10.68460938 3.14648438 11.765625 C3.1111104 13.51074128 3.05730221 15.25546608 3 17 C0.36 17 -2.28 17 -5 17 C-5.0515625 16.31292969 -5.103125 15.62585938 -5.15625 14.91796875 C-5.67091677 9.74733104 -5.67091677 9.74733104 -8.52734375 5.66796875 C-13.96372897 3.41114626 -20.22645936 3.181495 -26 4 C-29.14908101 5.31006691 -31.4364321 6.8728642 -33 10 C-33.19738723 12.10955062 -33.19738723 12.10955062 -33.1875 14.4375 C-33.20876953 15.61119141 -33.20876953 15.61119141 -33.23046875 16.80859375 C-33.14086064 19.29205987 -33.14086064 19.29205987 -31 22 C-29.11347525 22.99934031 -29.11347525 22.99934031 -26.89453125 23.71875 C-26.07533203 24.01136719 -25.25613281 24.30398437 -24.41210938 24.60546875 C-23.55423828 24.90066406 -22.69636719 25.19585937 -21.8125 25.5 C-5.25283564 31.32961282 -5.25283564 31.32961282 -0.6875 35.4375 C-0.03136719 36.01371094 0.62476563 36.58992188 1.30078125 37.18359375 C5.56612198 41.7430959 5.37044017 46.07001401 5.24609375 52.08984375 C4.79362595 57.44045503 3.00714143 60.03762041 -0.8125 63.6875 C-7.10491398 68.25258465 -11.63440777 69.50429443 -19.25 69.375 C-20.51589966 69.36194824 -20.51589966 69.36194824 -21.80737305 69.34863281 C-27.84103266 69.20670541 -33.51858937 68.72545093 -39 66 C-40.06863281 65.4740625 -41.13726562 64.948125 -42.23828125 64.40625 C-45 62 -45 62 -45.5859375 58.109375 C-45.5462752 56.65509063 -45.47500701 55.20138372 -45.375 53.75 C-45.34792969 53.00492188 -45.32085937 52.25984375 -45.29296875 51.4921875 C-45.22250808 49.66021007 -45.11488993 47.82972849 -45 46 C-42.03 46 -39.06 46 -36 46 C-35.34 49.96 -34.68 53.92 -34 58 C-25.39248064 61.33194298 -16.72548608 62.81740016 -8 59 C-5.25097353 55.05574463 -5.1971884 49.64785662 -6 45 C-10.06008716 39.16362471 -16.16891776 37.86876558 -22.640625 35.8828125 C-23.29498535 35.67591797 -23.9493457 35.46902344 -24.62353516 35.25585938 C-26.54937725 34.6488362 -28.48163056 34.06226868 -30.4140625 33.4765625 C-36.061792 31.15102682 -40.41688886 27.63490248 -43.3046875 22.08984375 C-45.15508005 16.52827063 -44.91942959 10.94919073 -42.4375 5.6875 C-30.58769888 -7.37766534 -15.53613254 -8.37732637 0 0 Z " fill="#C7F8B9" transform="translate(463,58)"/>
<path d="M0 0 C3.17625 -0.061875 6.3525 -0.12375 9.625 -0.1875 C11.1092749 -0.22846802 11.1092749 -0.22846802 12.62353516 -0.27026367 C17.82669214 -0.31917145 21.54756216 -0.01276945 26 3 C28.9744974 7.4617461 28.49796388 11.76754876 28 17 C26.75302686 20.0550842 25.9808635 21.39501874 23.20214844 23.10888672 C20.64303476 24.14444824 18.77023143 24.22890526 16.015625 24.1953125 C15.17290039 24.19031738 14.33017578 24.18532227 13.46191406 24.18017578 C11.8720166 24.15286377 11.8720166 24.15286377 10.25 24.125 C6.8675 24.08375 3.485 24.0425 0 24 C0 16.08 0 8.16 0 0 Z " fill="#148E59" transform="translate(301,62)"/>
<path d="M0 0 C6.93 0 13.86 0 21 0 C21 4.62 21 9.24 21 14 C13.41 14 5.82 14 -2 14 C-2 19.61 -2 25.22 -2 31 C4.27 30.67 10.54 30.34 17 30 C17.33 27.69 17.66 25.38 18 23 C22.62 23 27.24 23 32 23 C32 30.26 32 37.52 32 45 C12.2 45 -7.6 45 -28 45 C-28 43.68 -28 42.36 -28 41 C-27.34 41 -26.68 41 -26 41 C-26 41.66 -26 42.32 -26 43 C-7.19 43 11.62 43 31 43 C31 37.39 31 31.78 31 26 C28.834375 26.12375 28.834375 26.12375 26.625 26.25 C25.81289062 26.29640625 25.00078125 26.3428125 24.1640625 26.390625 C23.44992188 26.59171875 22.73578125 26.7928125 22 27 C21.32470355 28.32898342 20.65861044 29.66266888 20 31 C15.82861338 33.44423209 11.51264619 33.26831699 6.8125 33.1875 C6.08869141 33.18685547 5.36488281 33.18621094 4.61914062 33.18554688 C-0.71827696 33.14086152 -0.71827696 33.14086152 -3 32 C-3 25.73 -3 19.46 -3 13 C4.59 12.34 12.18 11.68 20 11 C20 8.03 20 5.06 20 2 C17.834375 2.309375 17.834375 2.309375 15.625 2.625 C10.11053758 3.20007965 5.33500073 2.37347891 0 1 C0 0.67 0 0.34 0 0 Z " fill="#2F8057" transform="translate(139,82)"/>
<path d="M0 0 C0.33 0.66 0.66 1.32 1 2 C0.01 3.485 0.01 3.485 -1 5 C-1.16699232 8.12521833 -1.16699232 8.12521833 -1 11 C-0.34 11 0.32 11 1 11 C1 12.65 1 14.3 1 16 C16.84 16 32.68 16 49 16 C49 14.35 49 12.7 49 11 C49.66 10.01 50.32 9.02 51 8 C51.66 8 52.32 8 53 8 C53 11.63 53 15.26 53 19 C33.86 19 14.72 19 -5 19 C-5 5.5 -5 5.5 0 0 Z " fill="#228558" transform="translate(55,108)"/>
<path d="M0 0 C8.44358583 -0.54474747 14.93329991 1.28886661 22 6 C22.22137393 8.62697064 22.28162025 11.00893964 22.1875 13.625 C22.16719727 14.68460938 22.16719727 14.68460938 22.14648438 15.765625 C22.1111104 17.51074128 22.05730221 19.25546608 22 21 C19.36 21 16.72 21 14 21 C13.90203125 20.30132812 13.8040625 19.60265625 13.703125 18.8828125 C13.55359375 17.97273438 13.4040625 17.06265625 13.25 16.125 C13.04117187 14.76761719 13.04117187 14.76761719 12.828125 13.3828125 C12.22016157 10.83785757 12.22016157 10.83785757 9.921875 9.6796875 C9.28765625 9.45539062 8.6534375 9.23109375 8 9 C8 8.34 8 7.68 8 7 C7.34 7 6.68 7 6 7 C6 6.34 6 5.68 6 5 C5.34 4.67 4.68 4.34 4 4 C2.64691687 2.68671343 1.31129922 1.35500919 0 0 Z " fill="#BAF4B5" transform="translate(444,54)"/>
<path d="M0 0 C7.41459942 -0.02312883 14.82919111 -0.04091785 22.24381924 -0.05181217 C25.68640348 -0.05703982 29.12896312 -0.06413531 32.5715332 -0.07543945 C36.52555043 -0.08834235 40.47955756 -0.09322918 44.43359375 -0.09765625 C46.29605995 -0.10539818 46.29605995 -0.10539818 48.19615173 -0.11329651 C49.33725906 -0.11337204 50.47836639 -0.11344757 51.65405273 -0.11352539 C52.664431 -0.115746 53.67480927 -0.11796661 54.71580505 -0.12025452 C57 0 57 0 58 1 C58.08685603 2.56172745 58.10702219 4.12729344 58.09765625 5.69140625 C58.09443359 6.63564453 58.09121094 7.57988281 58.08789062 8.55273438 C58.07532227 10.04256836 58.07532227 10.04256836 58.0625 11.5625 C58.05798828 12.55958984 58.05347656 13.55667969 58.04882812 14.58398438 C58.03700023 17.05601487 58.01906415 19.52801472 58 22 C53.38 22 48.76 22 44 22 C43.505 19.03 43.505 19.03 43 16 C37.06 15.67 31.12 15.34 25 15 C25 14.67 25 14.34 25 14 C31.37305598 13.25492456 37.58311325 12.89650183 44 13 C44.495 16.465 44.495 16.465 45 20 C48.63 20 52.26 20 56 20 C56 14.06 56 8.12 56 2 C48.48849378 2.11799568 40.97712685 2.24222551 33.46582031 2.37231445 C30.90888293 2.41571022 28.35191569 2.4573818 25.79492188 2.49731445 C22.12621041 2.55490469 18.45764989 2.61863138 14.7890625 2.68359375 C13.64007477 2.70030624 12.49108704 2.71701874 11.30728149 2.73423767 C9.71585831 2.7641555 9.71585831 2.7641555 8.09228516 2.79467773 C6.68663803 2.81799416 6.68663803 2.81799416 5.25259399 2.84178162 C2.96486209 2.85779985 2.96486209 2.85779985 1 4 C0.67 2.68 0.34 1.36 0 0 Z " fill="#267C54" transform="translate(112,53)"/>
<path d="M0 0 C2.64 0 5.28 0 8 0 C8 5.94 8 11.88 8 18 C-10.15 18 -28.3 18 -47 18 C-47 15.69 -47 13.38 -47 11 C-43.535 10.505 -43.535 10.505 -40 10 C-40.66 10.66 -41.32 11.32 -42 12 C-43.32 12 -44.64 12 -46 12 C-46 13.32 -46 14.64 -46 16 C-28.51 16 -11.02 16 7 16 C6.67 11.71 6.34 7.42 6 3 C3.525 2.505 3.525 2.505 1 2 C1 4.31 1 6.62 1 9 C0.34 9.33 -0.32 9.66 -1 10 C-0.67 6.7 -0.34 3.4 0 0 Z " fill="#A5EDAD" transform="translate(399,109)"/>
<path d="M0 0 C0.33 0 0.66 0 1 0 C1.33 7.59 1.66 15.18 2 23 C4.97 23.66 7.94 24.32 11 25 C11 28.63 11 32.26 11 36 C-0.22 36 -11.44 36 -23 36 C-23 32.37 -23 28.74 -23 25 C-19.535 24.505 -19.535 24.505 -16 24 C-16.66 24.33 -17.32 24.66 -18 25 C-18 25.99 -18 26.98 -18 28 C-18.66 28.33 -19.32 28.66 -20 29 C-20.65772428 32.02934491 -20.65772428 32.02934491 -21 35 C-20.01 34.505 -20.01 34.505 -19 34 C-16.89471067 33.91456105 -14.78668843 33.89285275 -12.6796875 33.90234375 C-11.42285156 33.90556641 -10.16601562 33.90878906 -8.87109375 33.91210938 C-7.55238281 33.92048828 -6.23367187 33.92886719 -4.875 33.9375 C-3.53515789 33.94251511 -2.195314 33.94707799 -0.85546875 33.95117188 C2.42973206 33.96298914 5.71484397 33.97946383 9 34 C9.33 32.02 9.66 30.04 10 28 C9.01 28.33 8.02 28.66 7 29 C6.67 28.01 6.34 27.02 6 26 C5.195625 26.020625 4.39125 26.04125 3.5625 26.0625 C1 26 1 26 0 25 C-0.08737645 23.14630389 -0.10698153 21.28932459 -0.09765625 19.43359375 C-0.09443359 18.30888672 -0.09121094 17.18417969 -0.08789062 16.02539062 C-0.07951172 14.84138672 -0.07113281 13.65738281 -0.0625 12.4375 C-0.05798828 11.24962891 -0.05347656 10.06175781 -0.04882812 8.83789062 C-0.03699675 5.89187774 -0.02051287 2.94596319 0 0 Z " fill="#33885B" transform="translate(199,91)"/>
<path d="M0 0 C0.33 0 0.66 0 1 0 C1 5.94 1 11.88 1 18 C-17.48 18 -35.96 18 -55 18 C-55 15.69 -55 13.38 -55 11 C-52.36 10.67 -49.72 10.34 -47 10 C-47 10.66 -47 11.32 -47 12 C-49.31 12 -51.62 12 -54 12 C-54 13.32 -54 14.64 -54 16 C-46.61258753 15.88271584 -39.22533093 15.75787986 -31.83813477 15.62768555 C-29.32286504 15.58425994 -26.80756437 15.54259071 -24.29223633 15.50268555 C-20.68561456 15.44516707 -17.07914969 15.38142033 -13.47265625 15.31640625 C-12.34038101 15.29969376 -11.20810577 15.28298126 -10.04151917 15.26576233 C-9.00051559 15.24581711 -7.95951202 15.22587189 -6.88696289 15.20532227 C-5.50463219 15.18200584 -5.50463219 15.18200584 -4.09437561 15.15821838 C-2.01249529 15.22977244 -2.01249529 15.22977244 -1 14 C-0.76472227 11.65012738 -0.58613583 9.29443961 -0.4375 6.9375 C-0.35371094 5.64714844 -0.26992188 4.35679688 -0.18359375 3.02734375 C-0.09271484 1.52880859 -0.09271484 1.52880859 0 0 Z " fill="#9FE9A9" transform="translate(707,109)"/>
<path d="M0 0 C0.33 0 0.66 0 1 0 C1 18.81 1 37.62 1 57 C3.97 57.33 6.94 57.66 10 58 C10 60.31 10 62.62 10 65 C1.09 65 -7.82 65 -17 65 C-17 62.69 -17 60.38 -17 58 C-16.67 58 -16.34 58 -16 58 C-16 59.98 -16 61.96 -16 64 C-15.15743652 63.75552124 -15.15743652 63.75552124 -14.29785156 63.50610352 C-11.86446819 62.97014902 -9.72377772 62.88638604 -7.234375 62.90234375 C-6.34492187 62.90556641 -5.45546875 62.90878906 -4.5390625 62.91210938 C-3.15847656 62.92467773 -3.15847656 62.92467773 -1.75 62.9375 C-0.81414063 62.94201172 0.12171875 62.94652344 1.0859375 62.95117188 C3.39069041 62.96293082 5.69531227 62.97936574 8 63 C8 61.68 8 60.36 8 59 C7.05125 59.020625 6.1025 59.04125 5.125 59.0625 C2 59 2 59 0 58 C-0.16843816 50.54369277 -0.32828873 43.08723684 -0.48217773 35.63061523 C-0.53553848 33.09411452 -0.59086312 30.55765433 -0.64819336 28.02124023 C-0.73026933 24.37492611 -0.80527573 20.72852448 -0.87890625 17.08203125 C-0.90594131 15.94852737 -0.93297638 14.8150235 -0.96083069 13.64717102 C-0.98092697 12.58644882 -1.00102325 11.52572662 -1.02172852 10.43286133 C-1.04171402 9.50242508 -1.06169952 8.57198883 -1.08229065 7.61335754 C-0.99902573 4.96905953 -0.5940438 2.57378987 0 0 Z " fill="#AFF2B2" transform="translate(634,62)"/>
<path d="M0 0 C12.87 0.495 12.87 0.495 26 1 C26 1.33 26 1.66 26 2 C17.75 2 9.5 2 1 2 C1 3.98 1 5.96 1 8 C3.64 8.33 6.28 8.66 9 9 C9 24.18 9 39.36 9 55 C8.67 55 8.34 55 8 55 C6.8697068 45.59448238 6.88333914 36.26612478 6.9375 26.8125 C6.94252803 25.27278792 6.94708862 23.73307425 6.95117188 22.19335938 C6.96206736 18.46220572 6.97925918 14.73111346 7 11 C4.69 10.67 2.38 10.34 0 10 C0 6.7 0 3.4 0 0 Z " fill="#3B9866" transform="translate(476,52)"/>
<path d="M0 0 C1.98 0 3.96 0 6 0 C6 19.14 6 38.28 6 58 C5.01 57.67 4.02 57.34 3 57 C3.33 38.85 3.66 20.7 4 2 C2.68 2 1.36 2 0 2 C0 1.34 0 0.68 0 0 Z " fill="#379564" transform="translate(285,61)"/>
<path d="M0 0 C8.91 0 17.82 0 27 0 C27 0.33 27 0.66 27 1 C14.625 1.495 14.625 1.495 2 2 C1.67 9.59 1.34 17.18 1 25 C9.58 25 18.16 25 27 25 C26.67 22.36 26.34 19.72 26 17 C26.9375 14.5 26.9375 14.5 28 13 C30.64 13.33 33.28 13.66 36 14 C36 14.66 36 15.32 36 16 C33.69 16 31.38 16 29 16 C28.67 19.3 28.34 22.6 28 26 C18.76 26 9.52 26 0 26 C0 17.42 0 8.84 0 0 Z " fill="#248556" transform="translate(370,93)"/>
<path d="M0 0 C0 0.33 0 0.66 0 1 C-1.98 1.33 -3.96 1.66 -6 2 C-5.360625 2.433125 -4.72125 2.86625 -4.0625 3.3125 C-2 5 -2 5 -1 8 C-0.34 8.33 0.32 8.66 1 9 C-0.64666203 8.8864371 -2.29236082 8.75882619 -3.9375 8.625 C-4.85402344 8.55539063 -5.77054687 8.48578125 -6.71484375 8.4140625 C-7.84599609 8.20910156 -7.84599609 8.20910156 -9 8 C-9.33 7.34 -9.66 6.68 -10 6 C-14.28769786 4.70069762 -18.56510345 4.92483226 -23 5 C-23 4.34 -23 3.68 -23 3 C-15.47658029 -0.68494027 -8.16659545 -0.28710687 0 0 Z M-14 2 C-13.34 2.66 -12.68 3.32 -12 4 C-12 3.34 -12 2.68 -12 2 C-12.66 2 -13.32 2 -14 2 Z " fill="#B8EFB1" transform="translate(451,53)"/>
<path d="M0 0 C8.25 0 16.5 0 25 0 C25 0.33 25 0.66 25 1 C17.08 1 9.16 1 1 1 C1 8.92 1 16.84 1 25 C9.58 24.67 18.16 24.34 27 24 C27.33 21.69 27.66 19.38 28 17 C28.33 17 28.66 17 29 17 C29 19.97 29 22.94 29 26 C19.43 26 9.86 26 0 26 C0 17.42 0 8.84 0 0 Z " fill="#278557" transform="translate(670,93)"/>
<path d="M0 0 C1.10844919 3.32534757 0.84454356 5.62182575 0 9 C3.48802033 10.57025575 6.21517861 11.25166843 10.03393555 11.25878906 C11.00811935 11.26509338 11.98230316 11.27139771 12.98600769 11.27789307 C14.02574234 11.2738446 15.06547699 11.26979614 16.13671875 11.265625 C17.21250687 11.26753845 18.28829498 11.2694519 19.39668274 11.27142334 C21.66525507 11.27278199 23.93383526 11.2691079 26.20239258 11.26074219 C29.68523454 11.25000698 33.16756435 11.2606646 36.65039062 11.2734375 C38.85416781 11.27211646 41.05794467 11.26955523 43.26171875 11.265625 C44.30752609 11.26967346 45.35333344 11.27372192 46.43083191 11.27789307 C47.39555923 11.27158875 48.36028656 11.26528442 49.35424805 11.25878906 C50.20520554 11.25719788 51.05616302 11.25560669 51.9329071 11.25396729 C54.22244536 11.18795552 54.22244536 11.18795552 56 9 C56 10.32 56 11.64 56 13 C37.19 13 18.38 13 -1 13 C-1 1 -1 1 0 0 Z " fill="#3A7F59" transform="translate(51,114)"/>
<path d="M0 0 C6.81761894 -0.0252689 13.63522589 -0.04283244 20.45288086 -0.05493164 C22.77417451 -0.05997333 25.09546497 -0.06680651 27.41674805 -0.07543945 C30.74528795 -0.08751225 34.07378602 -0.09322979 37.40234375 -0.09765625 C38.44712387 -0.10281754 39.49190399 -0.10797882 40.56834412 -0.11329651 C41.52926468 -0.11337204 42.49018524 -0.11344757 43.48022461 -0.11352539 C44.33071884 -0.115746 45.18121307 -0.11796661 46.05747986 -0.12025452 C48 0 48 0 49 1 C49.15135944 2.7872057 49.22175778 4.58161876 49.25 6.375 C49.27578125 7.35210937 49.3015625 8.32921875 49.328125 9.3359375 C49 12 49 12 46 15 C46 11.04 46 7.08 46 3 C42.61653512 2.32330702 40.01089942 1.86710928 36.66870117 1.79467773 C35.848228 1.77473251 35.02775482 1.75478729 34.18241882 1.73423767 C33.3114003 1.71752518 32.44038177 1.70081268 31.54296875 1.68359375 C30.64000565 1.66281265 29.73704254 1.64203156 28.80671692 1.62062073 C25.93371903 1.5554472 23.06063286 1.49639045 20.1875 1.4375 C18.23501706 1.39428414 16.28254292 1.35066888 14.33007812 1.30664062 C9.55347497 1.19979893 4.77678336 1.09844143 0 1 C0 0.67 0 0.34 0 0 Z " fill="#2D7C54" transform="translate(58,53)"/>
<path d="M0 0 C0.33 0 0.66 0 1 0 C1 2.31 1 4.62 1 7 C0.030625 7.474375 -0.93875 7.94875 -1.9375 8.4375 C-4.80477437 9.70193947 -4.80477437 9.70193947 -6 11 C-6.11170062 12.38505469 -6.15668596 13.77559025 -6.17358398 15.16503906 C-6.18707382 16.04975891 -6.20056366 16.93447876 -6.21446228 17.8460083 C-6.22490067 18.80948181 -6.23533905 19.77295532 -6.24609375 20.765625 C-6.27904223 22.79036874 -6.3122537 24.81510822 -6.34570312 26.83984375 C-6.39307207 30.04375155 -6.43747107 33.24764329 -6.47680664 36.45166016 C-6.51657729 39.53567137 -6.56812326 42.61931621 -6.62109375 45.703125 C-6.6295079 46.65850159 -6.63792206 47.61387817 -6.64659119 48.59820557 C-6.73094308 53.14641859 -6.83217297 56.8779303 -9 61 C-9.66 60.67 -10.32 60.34 -11 60 C-10.67854004 58.89462891 -10.35708008 57.78925781 -10.02587891 56.65039062 C-8.77567723 51.6275418 -8.65059324 46.74974925 -8.5859375 41.59375 C-8.56657135 40.6284436 -8.5472052 39.66313721 -8.5272522 38.6685791 C-8.46789982 35.61247343 -8.42124962 32.55632918 -8.375 29.5 C-8.33677936 27.41665105 -8.2977253 25.33331722 -8.2578125 23.25 C-8.16223511 18.1667907 -8.07804187 13.08350753 -8 8 C-5.69 7.34 -3.38 6.68 -1 6 C-0.67 4.02 -0.34 2.04 0 0 Z " fill="#238958" transform="translate(546,54)"/>
<path d="M0 0 C-0.33 0.66 -0.66 1.32 -1 2 C-1.66 2 -2.32 2 -3 2 C-2.67 2.66 -2.34 3.32 -2 4 C-1.34 4 -0.68 4 0 4 C0 5.98 0 7.96 0 10 C-2.31 10 -4.62 10 -7 10 C-7 9.34 -7 8.68 -7 8 C-7.66 8 -8.32 8 -9 8 C-9 5.69 -9 3.38 -9 1 C-6.04335481 -0.4783226 -3.25770263 -0.06032783 0 0 Z " fill="#218457" transform="translate(120,115)"/>
<path d="M0 0 C1.98 0.66 3.96 1.32 6 2 C6 4.97 6 7.94 6 11 C3.69 11 1.38 11 -1 11 C-1.0270043 9.54176788 -1.04639787 8.08339325 -1.0625 6.625 C-1.07410156 5.81289062 -1.08570313 5.00078125 -1.09765625 4.1640625 C-1 2 -1 2 0 0 Z " fill="#CEFDBD" transform="translate(459,64)"/>
<path d="M0 0 C0 0.99 0 1.98 0 3 C-0.9590625 3.2165625 -0.9590625 3.2165625 -1.9375 3.4375 C-3.97545146 3.81007181 -3.97545146 3.81007181 -5 5 C-5.0927833 6.38160115 -5.11747043 7.76788038 -5.11352539 9.15258789 C-5.11344986 10.03342545 -5.11337433 10.914263 -5.11329651 11.8217926 C-5.10813522 12.77907761 -5.10297394 13.73636261 -5.09765625 14.72265625 C-5.0962413 15.69786728 -5.09482635 16.67307831 -5.09336853 17.67784119 C-5.08775133 20.80609143 -5.07519593 23.93427123 -5.0625 27.0625 C-5.05748722 29.17773334 -5.05292393 31.29296781 -5.04882812 33.40820312 C-5.03777631 38.60549296 -5.02102146 43.80274145 -5 49 C-5.66 49 -6.32 49 -7 49 C-7 33.16 -7 17.32 -7 1 C-3.535 0.505 -3.535 0.505 0 0 Z " fill="#238958" transform="translate(502,60)"/>
<path d="M0 0 C0.33 0 0.66 0 1 0 C1.33 7.59 1.66 15.18 2 23 C6.455 23.99 6.455 23.99 11 25 C11 28.63 11 32.26 11 36 C10.67 36 10.34 36 10 36 C10 33.36 10 30.72 10 28 C9.01 28.33 8.02 28.66 7 29 C6.67 28.01 6.34 27.02 6 26 C5.195625 26.020625 4.39125 26.04125 3.5625 26.0625 C1 26 1 26 0 25 C-0.08737645 23.14630389 -0.10698153 21.28932459 -0.09765625 19.43359375 C-0.09443359 18.30888672 -0.09121094 17.18417969 -0.08789062 16.02539062 C-0.07951172 14.84138672 -0.07113281 13.65738281 -0.0625 12.4375 C-0.05798828 11.24962891 -0.05347656 10.06175781 -0.04882812 8.83789062 C-0.03699675 5.89187774 -0.02051287 2.94596319 0 0 Z " fill="#257A50" transform="translate(199,91)"/>
<path d="M0 0 C4.62 0 9.24 0 14 0 C14 3.63 14 7.26 14 11 C13.67 11 13.34 11 13 11 C13 7.7 13 4.4 13 1 C9.37 1 5.74 1 2 1 C2.020625 2.299375 2.04125 3.59875 2.0625 4.9375 C2.08399454 6.29165633 2.07148199 7.64756083 2 9 C1 10 1 10 -0.85766602 10.11352539 C-1.64842529 10.10828857 -2.43918457 10.10305176 -3.25390625 10.09765625 C-4.10791016 10.09443359 -4.96191406 10.09121094 -5.84179688 10.08789062 C-6.73962891 10.07951172 -7.63746094 10.07113281 -8.5625 10.0625 C-9.46419922 10.05798828 -10.36589844 10.05347656 -11.29492188 10.04882812 C-13.53001314 10.03700225 -15.76497437 10.0205222 -18 10 C-18 9.67 -18 9.34 -18 9 C-12.39 9 -6.78 9 -1 9 C-0.67 6.03 -0.34 3.06 0 0 Z " fill="#2C7C55" transform="translate(95,104)"/>
<path d="M0 0 C3.375 4.5 3.375 4.5 4 8 C3.34 8 2.68 8 2 8 C1.67 21.86 1.34 35.72 1 50 C0.67 50 0.34 50 0 50 C0 33.5 0 17 0 0 Z " fill="#378A5E" transform="translate(571,69)"/>
<path d="M0 0 C4.95 0 9.9 0 15 0 C15.66 1.65 16.32 3.3 17 5 C16.34 5 15.68 5 15 5 C14.67 4.01 14.34 3.02 14 2 C9.71 1.67 5.42 1.34 1 1 C1 8.26 1 15.52 1 23 C2.98 23.33 4.96 23.66 7 24 C7 24.66 7 25.32 7 26 C4.69 25.67 2.38 25.34 0 25 C0 16.75 0 8.5 0 0 Z " fill="#248B59" transform="translate(301,94)"/>
<path d="M0 0 C0.66 0 1.32 0 2 0 C1.67 0.66 1.34 1.32 1 2 C0.67 1.34 0.34 0.68 0 0 Z M7 4 C4.35637129 6.64362871 1.72747933 7.10163281 -1.80859375 8.12109375 C-4.17008719 9.06821679 -5.26679329 10.185944 -7 12 C-7.66 12 -8.32 12 -9 12 C-8.42531075 8.12084756 -6.62115553 5.85243395 -4 3 C0.25061356 1.58312881 2.71851625 2.80679961 7 4 Z " fill="#CFF9BB" transform="translate(437,55)"/>
<path d="M0 0 C7.26 0 14.52 0 22 0 C22 2.31 22 4.62 22 7 C20.02 7 18.04 7 16 7 C16.639375 6.566875 17.27875 6.13375 17.9375 5.6875 C20.26746003 4.08760823 20.26746003 4.08760823 21 1 C18.06217531 1.14075205 15.12484829 1.2873838 12.1875 1.4375 C11.35412109 1.47681641 10.52074219 1.51613281 9.66210938 1.55664062 C8.85966797 1.59853516 8.05722656 1.64042969 7.23046875 1.68359375 C6.49207764 1.72025146 5.75368652 1.75690918 4.99291992 1.79467773 C2.792505 1.94842141 2.792505 1.94842141 0 3 C0 4.65 0 6.3 0 8 C-0.99 8.33 -1.98 8.66 -3 9 C-2.01 6.03 -1.02 3.06 0 0 Z " fill="#BBFBBA" transform="translate(621,54)"/>
<path d="M0 0 C0 0.99 0 1.98 0 3 C-0.57679504 2.83923477 -1.15359009 2.67846954 -1.74786377 2.51283264 C-3.91316224 2.01977378 -5.81923487 1.84501739 -8.03417969 1.79467773 C-9.20494049 1.7647599 -9.20494049 1.7647599 -10.39935303 1.73423767 C-11.23178528 1.71752518 -12.06421753 1.70081268 -12.921875 1.68359375 C-13.78186096 1.66281265 -14.64184692 1.64203156 -15.52789307 1.62062073 C-18.26851598 1.55536261 -21.00923275 1.49635083 -23.75 1.4375 C-25.6106867 1.39429219 -27.47136398 1.35067718 -29.33203125 1.30664062 C-33.88792523 1.19970558 -38.4439134 1.09837149 -43 1 C-43 0.67 -43 0.34 -43 0 C-37.35849247 -0.16759211 -31.71684548 -0.32815426 -26.07495117 -0.48217773 C-24.15529992 -0.53557803 -22.23570129 -0.59090586 -20.31616211 -0.64819336 C-17.55854641 -0.73015919 -14.80081636 -0.80521256 -12.04296875 -0.87890625 C-11.18350143 -0.90594131 -10.32403412 -0.93297638 -9.43852234 -0.96083069 C-8.63791885 -0.98092697 -7.83731537 -1.00102325 -7.01245117 -1.02172852 C-5.95655037 -1.05170677 -5.95655037 -1.05170677 -4.87931824 -1.08229065 C-3 -1 -3 -1 0 0 Z " fill="#208354" transform="translate(327,53)"/>
<path d="M0 0 C2.49361571 1.20381448 4.68143083 2.45428722 7 4 C9.11280345 4.63292383 9.11280345 4.63292383 11 5 C10.67 5.66 10.34 6.32 10 7 C14.62 6.67 19.24 6.34 24 6 C19.55692666 8.96204889 16.31050979 9.66962645 11 9 C6.64469342 7.57659607 3.71429831 5.98216018 1 2.25 C0.67 1.5075 0.34 0.765 0 0 Z " fill="#2D9561" transform="translate(496,111)"/>
<path d="M0 0 C0.66 0.33 1.32 0.66 2 1 C-1.63 5.95 -5.26 10.9 -9 16 C-9 13 -9 13 -8 10 C-7.34 10 -6.68 10 -6 10 C-6.99 8.68 -7.98 7.36 -9 6 C-6.58170035 2.37255052 -5.05638557 2.20828506 -1 1 C-0.67 0.67 -0.34 0.34 0 0 Z " fill="#1C8757" transform="translate(90,86)"/>
<path d="M0 0 C2.64 0 5.28 0 8 0 C9.32 2.64 10.64 5.28 12 8 C9.03 7.505 9.03 7.505 6 7 C6 6.34 6 5.68 6 5 C5.34 4.67 4.68 4.34 4 4 C2.64691687 2.68671343 1.31129922 1.35500919 0 0 Z " fill="#D0FDBD" transform="translate(444,54)"/>
<path d="M0 0 C2.64 0 5.28 0 8 0 C8 5.61 8 11.22 8 17 C7.67 17 7.34 17 7 17 C6.67 12.38 6.34 7.76 6 3 C4.35 2.67 2.7 2.34 1 2 C1 4.31 1 6.62 1 9 C0.01 9.495 0.01 9.495 -1 10 C-0.67 6.7 -0.34 3.4 0 0 Z " fill="#B3F8B8" transform="translate(399,109)"/>
<path d="M0 0 C8.25 0 16.5 0 25 0 C25.66 1.32 26.32 2.64 27 4 C25.96166016 3.80083984 25.96166016 3.80083984 24.90234375 3.59765625 C16.59671321 2.09848447 8.41703145 1.43694972 0 1 C0 0.67 0 0.34 0 0 Z " fill="#27754F" transform="translate(177,53)"/>
<path d="M0 0 C0.33 0 0.66 0 1 0 C1.36144578 4.45783133 1.36144578 4.45783133 -0.125 6.6875 C-2.59505803 8.41654062 -5.11875472 9.16764025 -8 10 C-8 11.98 -8 13.96 -8 16 C-11 12.375 -11 12.375 -11 9 C-5.25 6 -5.25 6 -3 6 C-2.690625 5.38125 -2.38125 4.7625 -2.0625 4.125 C-1.375 2.75 -0.6875 1.375 0 0 Z " fill="#29915E" transform="translate(337,83)"/>
<path d="M0 0 C1.8125 1.4375 1.8125 1.4375 3 3 C2.67 3.66 2.34 4.32 2 5 C1.34 5 0.68 5 0 5 C0.66 6.65 1.32 8.3 2 10 C1.01 10.495 1.01 10.495 0 11 C-0.83878455 9.71186658 -1.67086783 8.41936744 -2.5 7.125 C-2.9640625 6.40570313 -3.428125 5.68640625 -3.90625 4.9453125 C-5 3 -5 3 -5 1 C-2.6875 0.3125 -2.6875 0.3125 0 0 Z " fill="#218157" transform="translate(211,89)"/>
<path d="M0 0 C0.33 0 0.66 0 1 0 C1.36625971 4.51720311 1.36625971 4.51720311 -0.375 6.8125 C-2 8 -2 8 -4 8 C-4.2475 8.721875 -4.495 9.44375 -4.75 10.1875 C-6.10983674 13.24713266 -7.82917754 15.4673738 -10 18 C-10.66 17.67 -11.32 17.34 -12 17 C-10.02619086 14.16289903 -8.04508282 11.33097524 -6.0625 8.5 C-5.49853516 7.68917969 -4.93457031 6.87835938 -4.35351562 6.04296875 C-3.81533203 5.27597656 -3.27714844 4.50898437 -2.72265625 3.71875 C-1.97640991 2.65043945 -1.97640991 2.65043945 -1.21508789 1.56054688 C-0.81410889 1.04556641 -0.41312988 0.53058594 0 0 Z " fill="#267F54" transform="translate(78,75)"/>
<path d="M0 0 C2.875 0.0625 2.875 0.0625 6 1 C7.875 4.0625 7.875 4.0625 9 7 C7.6696875 6.7525 7.6696875 6.7525 6.3125 6.5 C3.46403108 6.07004243 0.86995198 5.91558965 -2 6 C-1.01 5.34 -0.02 4.68 1 4 C1 3.34 1 2.68 1 2 C0.34 1.67 -0.32 1.34 -1 1 C-0.67 0.67 -0.34 0.34 0 0 Z " fill="#C5F0B3" transform="translate(454,57)"/>
<path d="M0 0 C-0.66 0 -1.32 0 -2 0 C-2 0.99 -2 1.98 -2 3 C-2.99 3.495 -2.99 3.495 -4 4 C-4.40729228 6.32156597 -4.74438677 8.6568787 -5 11 C-5.66 11 -6.32 11 -7 11 C-7 7.37 -7 3.74 -7 0 C-3.86650268 -1.04449911 -3.01031744 -0.93423645 0 0 Z " fill="#297C53" transform="translate(183,116)"/>
<path d="M0 0 C0.33 0 0.66 0 1 0 C1.12117188 0.95261719 1.24234375 1.90523438 1.3671875 2.88671875 C1.53476562 4.14097656 1.70234375 5.39523438 1.875 6.6875 C2.03742188 7.92886719 2.19984375 9.17023438 2.3671875 10.44921875 C2.92478369 13.57795295 3.69008123 16.12148102 5 19 C3.35 18.67 1.7 18.34 0 18 C0 12.06 0 6.12 0 0 Z " fill="#BFFAB9" transform="translate(493,95)"/>
<path d="M0 0 C0.33 0 0.66 0 1 0 C1.04898437 0.73605469 1.09796875 1.47210938 1.1484375 2.23046875 C1.22320312 3.20628906 1.29796875 4.18210937 1.375 5.1875 C1.44460938 6.15042969 1.51421875 7.11335938 1.5859375 8.10546875 C2.00215853 11.01508938 2.79874096 13.32890774 4 16 C3.34 16.33 2.68 16.66 2 17 C2 16.34 2 15.68 2 15 C0.68 14.34 -0.64 13.68 -2 13 C-1.34 8.71 -0.68 4.42 0 0 Z " fill="#268D5C" transform="translate(418,67)"/>
<path d="M0 0 C1.98 0 3.96 0 6 0 C6.87867729 3.73437848 7.08912219 7.16774573 7 11 C4.04250209 7.53258866 1.92151848 4.13126473 0 0 Z " fill="#217D53" transform="translate(216,106)"/>
<path d="M0 0 C0.33 0 0.66 0 1 0 C1 4.95 1 9.9 1 15 C4.96 15.33 8.92 15.66 13 16 C13 16.33 13 16.66 13 17 C8.38 17 3.76 17 -1 17 C-0.67 11.39 -0.34 5.78 0 0 Z " fill="#2B7D53" transform="translate(52,60)"/>
<path d="M0 0 C1.36511719 0.43119141 1.36511719 0.43119141 2.7578125 0.87109375 C3.45648438 1.09925781 4.15515625 1.32742187 4.875 1.5625 C4.875 1.8925 4.875 2.2225 4.875 2.5625 C2.895 2.5625 0.915 2.5625 -1.125 2.5625 C-1.455 3.2225 -1.785 3.8825 -2.125 4.5625 C-4.0625 3.75 -4.0625 3.75 -6.125 2.5625 C-6.455 1.5725 -6.785 0.5825 -7.125 -0.4375 C-4.30685434 -1.84657283 -2.95222796 -0.94622691 0 0 Z " fill="#B5EDAF" transform="translate(440.125,83.4375)"/>
<path d="M0 0 C0.886875 0.61875 1.77375 1.2375 2.6875 1.875 C5.46061184 3.65397741 7.9140354 4.91083602 11 6 C11 6.33 11 6.66 11 7 C7.04 7 3.08 7 -1 7 C-0.67 4.69 -0.34 2.38 0 0 Z " fill="#27915E" transform="translate(491,120)"/>
<path d="M0 0 C1.10844919 3.32534757 0.84454356 5.62182575 0 9 C2.475 9.99 2.475 9.99 5 11 C4.67 11.66 4.34 12.32 4 13 C2.35 13 0.7 13 -1 13 C-1.02686553 11.02090602 -1.04633375 9.04171029 -1.0625 7.0625 C-1.07410156 5.96035156 -1.08570313 4.85820313 -1.09765625 3.72265625 C-1 1 -1 1 0 0 Z " fill="#2E7D55" transform="translate(51,114)"/>
<path d="M0 0 C2.10409639 -0.02701408 4.20829178 -0.04640223 6.3125 -0.0625 C7.48425781 -0.07410156 8.65601563 -0.08570312 9.86328125 -0.09765625 C13 0 13 0 16 1 C15.67 1.66 15.34 2.32 15 3 C4.44191344 2.03644647 4.44191344 2.03644647 0 1 C0 0.67 0 0.34 0 0 Z " fill="#278557" transform="translate(139,82)"/>
<path d="M0 0 C2.31242092 2.16323247 4.0156396 4.37647804 5.6875 7.0625 C6.12449219 7.75472656 6.56148437 8.44695312 7.01171875 9.16015625 C8 11 8 11 8 13 C7.01 13 6.02 13 5 13 C4.34 10.69 3.68 8.38 3 6 C2.34 6 1.68 6 1 6 C0.67 4.02 0.34 2.04 0 0 Z " fill="#257A51" transform="translate(207,62)"/>
<path d="M0 0 C0 0.33 0 0.66 0 1 C-0.61488281 1.18175781 -1.22976563 1.36351562 -1.86328125 1.55078125 C-2.67152344 1.80214844 -3.47976563 2.05351563 -4.3125 2.3125 C-5.51326172 2.67794922 -5.51326172 2.67794922 -6.73828125 3.05078125 C-9.11406211 4.04787062 -10.24597301 5.16367262 -12 7 C-12.66 7 -13.32 7 -14 7 C-13.9375 5.1875 -13.9375 5.1875 -13 3 C-8.47170884 0.51387936 -5.23158464 -0.38279888 0 0 Z " fill="#C2FCBC" transform="translate(442,60)"/>
<path d="M0 0 C1.32 0.33 2.64 0.66 4 1 C3.34 1.66 2.68 2.32 2 3 C1.83322718 6.58343976 1.83322718 6.58343976 2 10 C4.97 10.495 4.97 10.495 8 11 C8 11.66 8 12.32 8 13 C5.36 12.67 2.72 12.34 0 12 C0 8.04 0 4.08 0 0 Z " fill="#297A4F" transform="translate(222,53)"/>
<path d="M0 0 C1 2 1 2 1 6 C1.33 6.99 1.66 7.98 2 9 C1.01 9.33 0.02 9.66 -1 10 C-3 9 -3 9 -3.875 7.25 C-4 5 -4 5 -2.0625 2.25 C-1.381875 1.5075 -0.70125 0.765 0 0 Z " fill="#1B8455" transform="translate(60,101)"/>
<path d="M0 0 C0.66 0.66 1.32 1.32 2 2 C-0.64 5.63 -3.28 9.26 -6 13 C-6.33 11.68 -6.66 10.36 -7 9 C-6.01 8.67 -5.02 8.34 -4 8 C-2.89363605 5.60931266 -2.89363605 5.60931266 -2 3 C-1.34 2.01 -0.68 1.02 0 0 Z " fill="#268154" transform="translate(99,72)"/>
<path d="M0 0 C2.31 0 4.62 0 7 0 C7.04254356 1.99954746 7.04080783 4.00041636 7 6 C6 7 6 7 2.4375 7.0625 C1.303125 7.041875 0.16875 7.02125 -1 7 C2 5 2 5 5 5 C5 3.68 5 2.36 5 1 C3.35 1 1.7 1 0 1 C0 0.67 0 0.34 0 0 Z " fill="#AAF2B2" transform="translate(496,54)"/>
<path d="M0 0 C0.33 0 0.66 0 1 0 C1 2.31 1 4.62 1 7 C0.01 7.33 -0.98 7.66 -2 8 C-2.73323796 10.01508358 -2.73323796 10.01508358 -3 12 C-3.66 11.67 -4.32 11.34 -5 11 C-3.35 7.37 -1.7 3.74 0 0 Z " fill="#288F5C" transform="translate(624,71)"/>
<path d="M0 0 C2.66929007 0.8657157 4.67741836 1.72191238 6.8125 3.5625 C8.62592027 7.28478371 8.23472483 10.93143633 8 15 C7.67 15 7.34 15 7 15 C6.8046875 13.01432292 6.609375 11.02864583 6.4140625 9.04296875 C6.07334609 6.70011858 6.07334609 6.70011858 4 4 C1.94996045 2.80767387 1.94996045 2.80767387 0 2 C0 1.34 0 0.68 0 0 Z " fill="#288B59" transform="translate(450,97)"/>
<path d="M0 0 C1.98 0 3.96 0 6 0 C4.86695008 3.39914975 3.87481525 4.05254451 1 6 C0.34 5.67 -0.32 5.34 -1 5 C-0.67 3.35 -0.34 1.7 0 0 Z " fill="#C2F2B6" transform="translate(478,55)"/>
<path d="M0 0 C-3.14591933 2.80045623 -5.067064 3.35261589 -9.25 3.1875 C-10.14203125 3.16042969 -11.0340625 3.13335937 -11.953125 3.10546875 C-12.62859375 3.07066406 -13.3040625 3.03585938 -14 3 C-9.11521152 0.50693368 -5.53108342 -0.12570644 0 0 Z " fill="#389B67" transform="translate(452,117)"/>
<path d="M0 0 C2.94721162 2.74395564 5.19168608 5.38337216 7 9 C6.67 9.66 6.34 10.32 6 11 C3.57223333 9.70519111 2.23032326 8.64161481 1.2890625 6.01953125 C0.80217802 4.0261274 0.39608139 2.01341375 0 0 Z " fill="#207B4F" transform="translate(215,75)"/>
<path d="M0 0 C0 0.99 0 1.98 0 3 C-7.425 2.01 -7.425 2.01 -15 1 C-15 0.67 -15 0.34 -15 0 C-13.06325815 -0.19517554 -11.12555991 -0.38087873 -9.1875 -0.5625 C-8.10855469 -0.66691406 -7.02960938 -0.77132812 -5.91796875 -0.87890625 C-3 -1 -3 -1 0 0 Z " fill="#268B5C" transform="translate(327,53)"/>
<path d="M0 0 C2.475 0.495 2.475 0.495 5 1 C5 1.66 5 2.32 5 3 C5.99 3 6.98 3 8 3 C8 3.66 8 4.32 8 5 C4.5625 4.1875 4.5625 4.1875 1 3 C0.67 2.01 0.34 1.02 0 0 Z " fill="#359563" transform="translate(428,114)"/>
<path d="M0 0 C0.99 0 1.98 0 3 0 C1.6062718 4.43458973 -0.60582235 6.87378374 -4 10 C-3.34 8.02 -2.68 6.04 -2 4 C-1.34 4 -0.68 4 0 4 C0 2.68 0 1.36 0 0 Z " fill="#288055" transform="translate(84,92)"/>
<path d="M0 0 C1.98 0 3.96 0 6 0 C6.33 0.99 6.66 1.98 7 3 C6.67 3.66 6.34 4.32 6 5 C2.83884224 3.63016497 2.0072908 3.0109362 0 0 Z " fill="#C0FAB9" transform="translate(491,119)"/>
<path d="M0 0 C0.66 0 1.32 0 2 0 C1.54738642 1.43931117 1.08767021 2.87638999 0.625 4.3125 C0.36976563 5.11300781 0.11453125 5.91351563 -0.1484375 6.73828125 C-1 9 -1 9 -3 12 C-2.40075776 7.80530429 -1.42500059 3.99000166 0 0 Z " fill="#BAF7B7" transform="translate(610,99)"/>
<path d="M0 0 C2.97 0 5.94 0 9 0 C8.67 0.66 8.34 1.32 8 2 C5.6859378 2.73075648 3.35171131 3.40138258 1 4 C0.67 2.68 0.34 1.36 0 0 Z " fill="#308B63" transform="translate(112,53)"/>
<path d="M0 0 C0.66 0 1.32 0 2 0 C2 3.63 2 7.26 2 11 C0.35122815 7.70245629 -0.53158436 5.55995883 -1 2 C-0.67 1.34 -0.34 0.68 0 0 Z " fill="#287851" transform="translate(106,116)"/>
<path d="M0 0 C2.97 0.99 5.94 1.98 9 3 C9 3.33 9 3.66 9 4 C6.03 4 3.06 4 0 4 C-0.33 3.34 -0.66 2.68 -1 2 C-0.67 1.34 -0.34 0.68 0 0 Z " fill="#2A905D" transform="translate(428,89)"/>
<path d="M0 0 C1.65 0.33 3.3 0.66 5 1 C3.515 3.475 3.515 3.475 2 6 C1.67 5.01 1.34 4.02 1 3 C0.34 3 -0.32 3 -1 3 C-0.67 2.01 -0.34 1.02 0 0 Z " fill="#1E8758" transform="translate(99,67)"/>
<path d="M0 0 C0.94875 0.04125 1.8975 0.0825 2.875 0.125 C2.875 0.785 2.875 1.445 2.875 2.125 C3.535 2.455 4.195 2.785 4.875 3.125 C1.575 2.795 -1.725 2.465 -5.125 2.125 C-3.125 0.125 -3.125 0.125 0 0 Z " fill="#A9ECAD" transform="translate(447.125,58.875)"/>
<path d="M0 0 C0.33 0 0.66 0 1 0 C1 3.63 1 7.26 1 11 C0.01 11.33 -0.98 11.66 -2 12 C-1.34 8.04 -0.68 4.08 0 0 Z " fill="#90DD9F" transform="translate(329,71)"/>
<path d="M0 0 C2.375 0.1875 2.375 0.1875 5 1 C6.3125 3.5625 6.3125 3.5625 7 6 C5.68 5.67 4.36 5.34 3 5 C3 3.68 3 2.36 3 1 C2.01 0.67 1.02 0.34 0 0 Z " fill="#389665" transform="translate(322,64)"/>
<path d="M0 0 C2.31 0 4.62 0 7 0 C7 0.33 7 0.66 7 1 C4.69 1 2.38 1 0 1 C0 0.67 0 0.34 0 0 Z " fill="#5A916C" transform="translate(86,103)"/>
<path d="M0 0 C2 1 2 1 2 1 Z " fill="#35BF8F" transform="translate(86,105)"/>
<path d="" fill="#D5FFBF" transform="translate(0,0)"/>
<path d="" fill="#D5FFBF" transform="translate(0,0)"/>
<path d="" fill="#D5FFBF" transform="translate(0,0)"/>
<path d="" fill="#D5FFBF" transform="translate(0,0)"/>
<path d="" fill="#D5FFBF" transform="translate(0,0)"/>
<path d="" fill="#D5FFBF" transform="translate(0,0)"/>
<path d="" fill="#D5FFBF" transform="translate(0,0)"/>
<path d="" fill="#D5FFBF" transform="translate(0,0)"/>
<path d="" fill="#D5FFBF" transform="translate(0,0)"/>
<path d="" fill="#D5FFBF" transform="translate(0,0)"/>
<path d="" fill="#D5FFBF" transform="translate(0,0)"/>
<path d="" fill="#D5FFBF" transform="translate(0,0)"/>
<path d="" fill="#D5FFBF" transform="translate(0,0)"/>
<path d="" fill="#D5FFBF" transform="translate(0,0)"/>
<path d="" fill="#D5FFBF" transform="translate(0,0)"/>
<path d="" fill="#D5FFBF" transform="translate(0,0)"/>
<path d="" fill="#D5FFBF" transform="translate(0,0)"/>
<path d="" fill="#D5FFBF" transform="translate(0,0)"/>
<path d="" fill="#D5FFBF" transform="translate(0,0)"/>
<path d="" fill="#D5FFBF" transform="translate(0,0)"/>
<path d="" fill="#D5FFBF" transform="translate(0,0)"/>
<path d="" fill="#D5FFBF" transform="translate(0,0)"/>
<path d="" fill="#D5FFBF" transform="translate(0,0)"/>
<path d="" fill="#D5FFBF" transform="translate(0,0)"/>
<path d="" fill="#D5FFBF" transform="translate(0,0)"/>
<path d="" fill="#6A7F5F" transform="translate(0,0)"/>
<path d="" fill="#D5FFBF" transform="translate(0,0)"/>
<path d="" fill="#D5FFBF" transform="translate(0,0)"/>
<path d="" fill="#D5FFBF" transform="translate(0,0)"/>
<path d="" fill="#D5FFBF" transform="translate(0,0)"/>
<path d="" fill="#D5FFBF" transform="translate(0,0)"/>
<path d="" fill="#D5FFBF" transform="translate(0,0)"/>
<path d="" fill="#D5FFBF" transform="translate(0,0)"/>
<path d="" fill="#D5FFBF" transform="translate(0,0)"/>
<path d="" fill="#D5FFBF" transform="translate(0,0)"/>
<path d="" fill="#D5FFBF" transform="translate(0,0)"/>
<path d="" fill="#D5FFBF" transform="translate(0,0)"/>
<path d="" fill="#D5FFBF" transform="translate(0,0)"/>
<path d="" fill="#D5FFBF" transform="translate(0,0)"/>
<path d="" fill="#D5FFBF" transform="translate(0,0)"/>
<path d="" fill="#D5FFBF" transform="translate(0,0)"/>
<path d="" fill="#D5FFBF" transform="translate(0,0)"/>
<path d="" fill="#D5FFBF" transform="translate(0,0)"/>
<path d="" fill="#D5FFBF" transform="translate(0,0)"/>
<path d="" fill="#D5FFBF" transform="translate(0,0)"/>
<path d="" fill="#D5FFBF" transform="translate(0,0)"/>
<path d="" fill="#D5FFBF" transform="translate(0,0)"/>
<path d="" fill="#D5FFBF" transform="translate(0,0)"/>
<path d="" fill="#D5FFBF" transform="translate(0,0)"/>
<path d="" fill="#D5FFBF" transform="translate(0,0)"/>
<path d="" fill="#D5FFBF" transform="translate(0,0)"/>
<path d="" fill="#D5FFBF" transform="translate(0,0)"/>
</svg>
